<?xml version="1.0" standalone="no"?>
<!DOCTYPE svg PUBLIC "-//W3C//DTD SVG 20010904//EN"
 "http://www.w3.org/TR/2001/REC-SVG-20010904/DTD/svg10.dtd">
<svg version="1.0" xmlns="http://www.w3.org/2000/svg"
 width="297.000000pt" height="170.000000pt" viewBox="0 0 297.000000 170.000000"
 preserveAspectRatio="xMidYMid meet">
<metadata>
Created by potrace 1.16, written by Peter Selinger 2001-2019
</metadata>
<g transform="translate(0.000000,170.000000) scale(0.100000,-0.100000)"
fill="#000000" stroke="none">
<path d="M832 1663 c4 -49 -25 -59 -40 -14 -15 43 -36 41 -28 -1 4 -18 9 -51
13 -73 l6 -40 -25 23 c-30 27 -42 28 -35 2 6 -22 -8 -28 -16 -7 -2 6 -8 9 -12
5 -4 -4 1 -18 12 -31 21 -30 67 -59 77 -50 9 9 36 -29 29 -41 -4 -5 -1 -6 5
-2 7 4 12 2 12 -3 0 -6 6 -11 13 -11 18 0 38 -36 30 -56 -4 -11 -3 -15 5 -10
8 4 11 -5 9 -31 -2 -39 -10 -43 -52 -28 -11 4 -6 -2 10 -13 27 -18 31 -18 43
-4 6 9 12 36 12 61 0 40 -4 49 -47 88 -54 50 -50 63 21 65 33 0 44 3 35 10
-11 8 -11 9 -1 6 8 -2 13 -8 13 -13 0 -6 15 -26 33 -45 19 -19 39 -45 45 -57
26 -50 8 -155 -34 -197 -13 -13 -14 -22 -6 -53 6 -21 10 -47 10 -58 -1 -11 -6
0 -11 25 -10 42 -11 43 -25 25 -10 -13 -14 -15 -10 -4 3 9 -1 16 -9 16 -12 0
-21 -55 -15 -91 5 -25 -107 -96 -152 -96 -12 0 -35 -7 -51 -15 -15 -8 -46 -15
-67 -15 -33 0 -41 -4 -54 -31 -14 -26 -18 -29 -32 -17 -49 40 -77 190 -50 268
12 34 13 40 2 27 -8 -12 -15 -14 -20 -7 -3 5 -10 8 -14 6 -3 -3 -7 3 -8 12 -3
36 -17 77 -30 90 -7 7 -13 10 -13 5 0 -4 -5 -1 -11 7 -8 11 -9 9 -3 -10 12
-45 23 -68 34 -75 5 -3 8 -10 6 -13 -2 -4 5 -19 16 -32 11 -14 16 -18 12 -10
-4 8 -4 12 1 8 4 -4 9 -48 10 -97 1 -69 -1 -88 -11 -81 -16 14 -11 -65 8 -107
13 -30 16 -32 34 -19 18 14 18 15 2 21 -10 4 -18 14 -18 22 0 8 -4 11 -10 8
-6 -3 -7 1 -4 9 3 9 11 16 17 16 6 0 8 -3 4 -6 -7 -8 49 -61 83 -79 14 -7 41
-16 60 -20 48 -10 63 -23 46 -40 -11 -11 -20 -11 -52 0 -21 7 -44 21 -49 31
-6 11 -17 21 -25 23 -8 2 -22 6 -32 8 -9 3 -26 -5 -37 -16 -27 -27 -96 -28
-129 -3 -26 20 -61 134 -43 140 10 3 6 11 -30 51 -9 10 -28 37 -41 60 -14 24
-28 42 -32 42 -20 -3 -25 1 -19 16 4 10 2 14 -4 10 -5 -3 -16 5 -23 18 -7 14
-20 25 -28 25 -8 0 -12 6 -9 14 3 8 -3 23 -14 34 -10 12 -19 24 -19 27 0 3
-16 28 -35 55 -19 27 -35 54 -35 58 0 5 -7 9 -15 9 -18 0 -20 -39 -3 -70 6
-12 27 -37 47 -55 39 -37 25 -33 -28 7 l-33 25 5 -34 c3 -19 8 -44 13 -54 6
-15 4 -17 -6 -11 -8 5 -11 4 -6 -3 6 -11 36 -6 36 6 0 3 -7 14 -17 24 -34 38
5 16 45 -25 40 -41 42 -45 26 -58 -10 -8 -15 -9 -11 -2 5 8 -4 11 -33 8 -23
-2 -38 0 -35 6 4 5 1 9 -4 9 -8 0 -11 -178 -11 -580 l0 -580 426 0 c322 0 423
3 418 12 -5 8 -2 9 12 3 31 -15 200 -18 225 -4 17 9 24 9 27 0 3 -8 245 -11
933 -11 l929 0 0 850 0 850 -516 0 c-409 0 -514 -3 -508 -12 6 -10 4 -10 -8 0
-22 18 -954 17 -961 -1 -4 -9 -6 -9 -6 1 -1 8 -22 12 -72 12 l-71 0 4 -37z
m677 -252 c8 -5 12 -18 8 -30 -3 -12 -1 -21 4 -21 5 0 9 7 9 15 0 12 18 15 95
17 52 1 105 2 118 2 13 1 22 -5 22 -14 0 -18 14 -30 38 -30 15 0 16 3 7 21
-16 29 -5 51 22 47 27 -4 32 -34 6 -32 -26 2 -22 -13 5 -22 41 -14 48 -13 57
11 8 21 15 23 74 22 58 0 65 -2 68 -21 2 -17 9 -20 33 -18 33 4 60 22 32 22
-10 0 -17 8 -17 20 0 13 7 20 20 20 26 0 37 -27 21 -51 -9 -15 -8 -19 3 -19
28 0 46 12 46 32 0 17 5 19 28 14 15 -4 66 -6 114 -6 75 1 87 -1 91 -17 3 -12
5 -9 6 9 1 32 14 42 42 33 15 -5 19 -14 17 -33 -3 -24 -8 -27 -45 -30 -22 -2
-57 4 -77 12 -30 13 -36 13 -36 1 0 -20 -19 -28 -35 -15 -10 8 -24 8 -56 0
-46 -13 -165 -16 -198 -5 -13 4 -21 2 -21 -5 0 -6 -5 -8 -12 -4 -6 4 -30 7
-52 6 -156 -4 -197 -3 -235 8 -34 9 -46 9 -51 -1 -11 -17 -43 -3 -36 16 4 13
0 12 -33 -1 -74 -29 -157 -2 -122 40 15 18 21 19 40 7z m-132 -123 c35 -28 35
-129 -1 -183 -32 -49 -99 -28 -116 36 -30 111 45 204 117 147z m346 11 c32
-14 47 -49 47 -105 0 -50 -20 -98 -45 -108 -56 -21 -94 10 -102 87 -8 68 20
119 74 136 1 1 13 -4 26 -10z m575 -75 c2 41 -1 62 -10 67 -9 6 -5 9 12 9 l25
0 -3 -110 c-2 -60 -7 -110 -11 -110 -4 0 -22 25 -40 55 -47 77 -53 78 -49 6
l3 -61 -37 0 c-29 0 -42 7 -68 38 l-31 37 5 -37 c4 -34 2 -38 -17 -38 -21 0
-22 4 -22 110 0 105 1 110 21 110 18 0 20 -5 16 -32 -4 -29 -3 -31 11 -20 9 8
19 22 22 33 4 10 15 19 26 19 20 0 20 0 0 -21 -11 -12 -25 -33 -31 -49 -10
-23 -7 -33 17 -75 45 -77 53 -71 53 43 0 54 3 102 7 105 4 4 27 -25 52 -65
l46 -73 3 59z m-1158 31 c0 -41 2 -45 24 -45 13 0 27 7 30 16 10 26 7 62 -6
67 -7 3 1 6 17 6 l30 1 0 -110 c0 -105 -1 -110 -21 -110 -19 0 -21 5 -20 53 1
50 0 52 -27 55 l-29 4 4 -56 c3 -54 2 -56 -22 -56 l-25 0 0 110 c0 107 1 110
23 110 20 0 22 -5 22 -45z m685 34 c-9 -13 4 -99 14 -99 4 0 13 25 20 55 7 30
16 55 20 55 4 0 13 -25 20 -55 7 -30 16 -55 21 -55 10 0 23 87 15 100 -4 6 5
10 21 10 20 0 24 -3 16 -12 -6 -7 -18 -55 -27 -106 -9 -50 -21 -94 -25 -97 -8
-5 -20 27 -35 90 -7 27 -8 28 -16 10 -4 -11 -13 -39 -19 -62 -6 -24 -15 -43
-19 -43 -5 0 -17 44 -26 98 -10 53 -22 103 -28 110 -7 9 -2 12 22 12 20 0 30
-4 26 -11z m797 -34 c-4 -45 -4 -45 28 -45 32 0 32 0 28 45 -3 40 -1 45 17 45
19 0 20 -7 20 -110 0 -103 -1 -110 -20 -110 -18 0 -20 5 -17 55 l4 55 -32 0
-32 0 4 -55 c3 -50 1 -55 -17 -55 -19 0 -20 7 -20 110 0 103 1 110 20 110 18
0 20 -5 17 -45z m-1388 -211 c20 -19 20 -23 -1 -46 -15 -17 -15 -18 15 -18 25
0 29 3 25 20 -4 15 0 20 16 20 14 0 21 -6 21 -20 0 -17 7 -20 48 -20 56 0 67
7 67 40 0 20 5 25 25 25 19 0 26 -6 28 -24 3 -18 8 -22 25 -18 173 37 186 38
243 28 44 -8 60 -8 65 1 9 15 186 22 194 8 4 -7 13 -7 24 0 27 14 101 9 101
-8 0 -11 9 -12 43 -5 57 11 150 6 211 -12 69 -21 85 -20 79 5 -3 13 1 22 12
26 25 10 50 -9 50 -37 0 -22 4 -24 56 -27 49 -3 57 -1 55 15 0 10 7 19 18 21
16 3 18 -1 14 -23 -5 -25 -4 -27 25 -21 35 7 57 23 57 42 0 18 -17 27 -26 13
-4 -8 -3 -9 4 -5 7 4 12 1 12 -8 0 -9 -9 -16 -20 -16 -25 0 -27 35 -3 49 47
26 74 -45 28 -75 -20 -13 -46 -15 -137 -13 -62 2 -125 0 -140 -5 -24 -7 -28
-5 -28 12 0 22 -24 32 -78 32 -30 0 -32 -2 -26 -25 5 -19 2 -26 -12 -31 -11
-4 -26 -13 -35 -21 -24 -20 -52 -6 -45 23 6 22 3 24 -27 24 -29 0 -33 -3 -32
-27 0 -26 -3 -28 -48 -31 -31 -2 -45 -7 -41 -14 5 -7 -2 -9 -20 -4 -19 5 -26
3 -26 -8 0 -8 -6 -19 -13 -23 -8 -4 -25 -25 -39 -46 l-26 -38 -28 38 c-16 21
-35 43 -43 49 -8 7 -11 16 -6 24 6 10 2 11 -19 6 -15 -4 -26 -2 -26 4 0 5 -20
10 -45 10 -49 0 -67 18 -45 45 11 13 7 15 -28 15 -38 0 -41 -2 -39 -27 2 -33
-29 -45 -41 -16 -4 10 -16 18 -27 18 -16 0 -20 6 -18 28 2 29 -12 33 -75 21
-23 -5 -28 -10 -25 -25 6 -22 -11 -25 -52 -9 -14 6 -51 7 -81 4 -46 -6 -57
-11 -65 -31 -5 -12 -24 -31 -44 -40 -19 -9 -35 -20 -35 -25 0 -4 -4 -8 -10 -8
-21 0 -9 21 17 31 34 13 63 38 63 54 0 7 -19 12 -47 13 -39 2 -52 8 -70 30
-14 16 -23 21 -23 13 0 -8 -3 -12 -6 -8 -9 9 35 67 51 67 7 0 21 -7 29 -16z
m-670 -259 c26 -13 55 -30 62 -36 11 -9 14 -9 14 0 0 20 38 2 74 -35 18 -19
44 -34 57 -35 13 -1 4 -5 -21 -10 -99 -19 -93 -14 -87 -72 5 -48 4 -50 -6 -20
-7 17 -29 43 -51 58 -21 14 -45 33 -53 41 -8 8 -17 14 -21 14 -4 0 -20 16 -35
35 -27 34 -28 37 -13 60 20 31 20 31 80 0z m776 -199 c1 5 9 -1 20 -14 16 -20
20 -21 33 -7 20 19 33 20 18 1 -14 -17 2 -32 21 -20 7 4 8 3 4 -5 -5 -8 0 -10
19 -7 15 3 30 8 33 10 3 3 11 1 19 -6 10 -8 12 -8 8 4 -5 12 0 14 20 11 35 -7
39 -17 20 -53 -16 -31 -16 -31 5 -20 11 6 20 7 19 3 -3 -20 3 -29 22 -30 12
-1 27 -10 33 -19 7 -9 18 -14 24 -10 7 4 22 -3 34 -16 13 -13 19 -20 14 -15
-6 4 -15 7 -20 7 -6 0 3 -9 19 -20 31 -20 62 -28 35 -9 -13 9 -13 10 0 6 8 -2
14 -9 13 -15 -4 -15 34 -35 49 -26 7 5 8 3 3 -6 -6 -10 -4 -12 11 -6 13 5 16
4 9 -3 -14 -14 -137 27 -128 42 3 6 1 7 -6 3 -15 -9 -53 3 -46 15 3 5 0 6 -8
3 -8 -3 -22 2 -31 11 -9 9 -16 12 -16 6 0 -9 -23 -3 -99 24 -8 3 -12 8 -9 10
3 3 24 -2 48 -10 23 -8 45 -15 48 -15 9 0 -43 38 -98 70 -51 30 -67 37 -95 39
-5 1 -3 6 5 11 8 5 12 10 8 11 -5 1 -12 3 -18 4 -5 1 -12 3 -15 4 -3 0 -8 1
-12 2 -12 1 -43 31 -43 42 0 5 7 4 15 -3 8 -7 15 -9 15 -4z m75 -156 c-16 -6
-16 -7 0 -23 9 -10 21 -14 27 -11 6 4 8 2 4 -4 -3 -5 0 -13 6 -15 7 -3 -2 -3
-21 0 -22 4 -32 3 -28 -4 4 -6 -4 -13 -18 -15 -17 -4 -25 -1 -25 8 0 16 -18
18 -39 5 -9 -6 -22 -6 -32 0 -12 6 -19 4 -23 -8 -5 -12 -9 -14 -18 -5 -9 9
-16 8 -30 -5 -17 -15 -18 -14 -18 13 0 16 -3 38 -6 49 -4 15 0 21 13 22 94 6
95 6 76 16 -27 15 -29 17 -14 27 9 5 42 -2 88 -18 49 -17 69 -28 58 -32z"/>
<path d="M732 1253 c-38 -15 -55 -119 -27 -173 18 -35 47 -46 85 -30 38 16 54
58 45 116 -10 69 -54 107 -103 87z"/>
</g>
</svg>
